<?xml version="1.0" standalone="no"?>
<!DOCTYPE svg PUBLIC "-//W3C//DTD SVG 20010904//EN"
 "http://www.w3.org/TR/2001/REC-SVG-20010904/DTD/svg10.dtd">
<svg version="1.0" xmlns="http://www.w3.org/2000/svg"
 width="704.000000pt" height="59.000000pt" viewBox="0 0 704.000000 59.000000"
 preserveAspectRatio="xMidYMid meet">

<g transform="translate(0.000000,59.000000) scale(0.100000,-0.100000)"
fill="#000000" stroke="none">
<path d="M101 547 c-19 -7 -44 -25 -55 -40 -20 -27 -21 -41 -21 -217 0 -272
-3 -269 305 -269 125 0 207 4 229 12 50 18 74 56 79 127 l4 60 -81 0 -81 0 0
-40 0 -40 -150 0 -150 0 0 129 0 129 -30 12 c-17 7 -33 17 -36 21 -3 5 78 9
180 9 l186 0 0 -40 0 -40 81 0 81 0 -4 60 c-5 71 -29 109 -79 127 -46 16 -412
16 -458 0z"/>
<path d="M801 547 c-19 -7 -44 -25 -55 -40 -20 -27 -21 -41 -21 -217 0 -272
-3 -269 305 -269 214 0 250 7 284 52 20 27 21 41 21 217 0 272 3 269 -305 269
-125 0 -207 -4 -229 -12z m379 -257 l0 -150 -150 0 -150 0 0 129 0 129 -30 12
c-17 7 -33 17 -36 21 -3 5 78 9 180 9 l186 0 0 -150z"/>
<path d="M1440 290 l0 -270 75 0 75 0 0 63 c0 63 0 63 -37 83 l-38 19 104 3
105 3 86 -86 85 -85 80 0 80 0 -85 85 -85 85 38 0 c21 0 51 7 67 15 47 25 60
61 60 174 0 92 -2 102 -26 130 -14 17 -42 35 -62 41 -21 5 -145 10 -279 10
l-243 0 0 -270z m450 85 l0 -65 -150 0 -150 0 0 44 c0 39 -3 45 -30 56 -17 7
-33 17 -36 21 -3 5 78 9 180 9 l186 0 0 -65z"/>
<path d="M2211 547 c-19 -7 -44 -25 -55 -40 -19 -26 -21 -44 -24 -210 -3 -177
-3 -183 20 -217 36 -53 66 -59 301 -59 l207 -1 0 60 0 60 -185 0 -185 0 0 23
c0 17 -11 29 -42 44 l-43 22 188 0 187 1 0 60 0 60 -145 0 -145 0 0 24 c0 18
-10 28 -42 42 l-43 19 228 3 227 2 0 60 0 60 -207 -1 c-134 0 -220 -4 -242
-12z"/>
<path d="M2722 542 c7 -10 57 -71 112 -135 l98 -117 -98 -117 c-144 -170 -139
-153 -47 -153 l78 0 70 85 c39 46 73 84 76 85 4 0 39 -38 78 -85 l72 -85 80 0
80 0 -110 131 c-61 71 -111 134 -111 139 0 5 50 68 111 139 l110 131 -79 0
-80 0 -72 -85 c-40 -47 -75 -85 -79 -84 -3 0 -37 38 -76 85 l-69 84 -79 0
c-73 0 -77 -1 -65 -18z"/>
<path d="M3742 551 c2 -5 57 -126 123 -270 l120 -261 81 0 80 0 118 258 c65
141 121 263 123 270 4 9 -15 12 -74 12 l-79 0 -78 -172 c-43 -95 -82 -176 -85
-181 -4 -4 -45 74 -90 173 l-84 180 -79 0 c-44 0 -78 -4 -76 -9z"/>
<path d="M4450 290 l0 -270 80 0 80 0 0 270 0 270 -80 0 -80 0 0 -270z"/>
<path d="M4805 553 c-72 -15 -94 -53 -96 -160 -2 -89 8 -115 54 -143 29 -18
51 -20 215 -20 l182 0 0 -45 0 -45 -146 0 c-137 0 -146 1 -151 20 -5 18 -14
20 -85 20 l-80 0 7 -42 c8 -48 22 -72 57 -96 31 -23 411 -31 473 -10 60 20 85
64 85 150 0 73 -13 109 -50 143 -20 18 -40 20 -214 25 -186 5 -191 6 -194 27
-2 12 -15 26 -33 33 -16 7 -32 17 -35 21 -3 5 78 9 180 9 179 0 186 -1 186
-20 0 -18 7 -20 80 -20 l80 0 0 34 c0 45 -38 98 -80 113 -34 11 -388 17 -435
6z"/>
<path d="M5410 290 l0 -270 80 0 80 0 0 270 0 270 -80 0 -80 0 0 -270z"/>
<path d="M5750 547 c-19 -7 -44 -27 -58 -47 -23 -34 -23 -40 -20 -223 l3 -189
32 -28 c42 -38 80 -42 303 -38 274 5 270 1 270 267 0 273 9 265 -285 268 -147
2 -220 -1 -245 -10z m375 -257 l0 -145 -147 -3 -148 -3 0 126 0 125 -40 20
c-22 11 -40 23 -40 25 0 3 84 4 188 3 l187 -3 0 -145z"/>
<path d="M6380 290 l0 -270 80 0 80 0 0 172 c0 164 1 170 18 155 10 -9 76 -86
147 -171 l130 -155 83 -1 82 0 0 270 0 270 -80 0 -80 0 -2 -172 -3 -173 -145
172 -145 172 -82 1 -83 0 0 -270z"/>
</g>
</svg>
