<?xml version="1.0" standalone="no"?>
<!DOCTYPE svg PUBLIC "-//W3C//DTD SVG 20010904//EN"
 "http://www.w3.org/TR/2001/REC-SVG-20010904/DTD/svg10.dtd">
<svg version="1.0" xmlns="http://www.w3.org/2000/svg"
 width="1197.000000pt" height="197.000000pt" viewBox="0 0 1197.000000 197.000000"
 preserveAspectRatio="xMidYMid meet">

<g transform="translate(0.000000,197.000000) scale(0.100000,-0.100000)"
fill="#000000" stroke="none">
<path d="M7422 1784 c-55 -38 0 -121 65 -98 23 8 29 16 31 45 5 62 -45 89 -96
53z"/>
<path d="M8972 1784 c-55 -38 0 -121 65 -98 23 8 29 16 31 45 5 62 -45 89 -96
53z"/>
<path d="M3010 1454 c-73 -20 -131 -55 -174 -106 l-36 -42 0 73 0 72 -32 -3
-33 -3 -3 -487 -2 -488 34 0 35 0 3 358 3 357 28 57 c70 143 240 203 377 134
30 -16 63 -35 73 -44 17 -16 18 -14 15 28 -3 44 -5 46 -58 72 -70 35 -156 43
-230 22z"/>
<path d="M4060 1454 c-250 -54 -429 -290 -406 -536 12 -129 67 -239 167 -334
120 -112 240 -152 408 -135 107 11 185 43 269 110 52 41 52 42 52 99 l0 57
-38 -42 c-60 -67 -137 -120 -208 -143 -54 -18 -82 -22 -158 -18 -77 4 -100 9
-151 35 -33 17 -71 40 -85 52 l-25 21 339 337 339 337 -49 43 c-90 80 -235
134 -348 132 -23 0 -70 -7 -106 -15z m290 -96 c136 -67 158 -25 -197 -380
-311 -311 -312 -312 -333 -293 -33 30 -78 135 -91 212 -34 205 90 406 300 485
35 13 71 17 146 15 92 -2 106 -5 175 -39z"/>
<path d="M8129 1457 c-88 -33 -131 -91 -131 -177 1 -98 57 -162 233 -267 179
-106 229 -165 229 -271 0 -67 -17 -107 -67 -156 -52 -50 -112 -75 -189 -75
-110 -1 -179 36 -240 129 l-29 44 -3 -38 c-5 -54 14 -92 65 -131 66 -51 130
-68 227 -63 62 4 93 11 133 31 106 55 174 157 174 264 0 129 -69 221 -236 313
-90 50 -181 116 -204 149 -29 40 -28 109 1 146 57 72 168 71 249 -2 l40 -37
-3 44 c-3 39 -8 48 -44 73 -50 35 -146 46 -205 24z"/>
<path d="M9940 1463 c-115 -17 -213 -66 -296 -148 -112 -110 -163 -242 -151
-391 12 -133 66 -244 168 -340 112 -105 204 -138 373 -133 107 4 116 6 192 43
262 129 370 449 236 700 -37 71 -154 185 -225 219 -92 45 -208 64 -297 50z
m162 -68 c237 -50 397 -314 334 -550 -73 -277 -361 -410 -623 -290 -69 31
-169 132 -205 205 -59 119 -60 262 -4 385 36 79 134 178 213 216 103 49 175
58 285 34z"/>
<path d="M11265 1454 c-32 -8 -78 -25 -101 -39 -42 -25 -142 -127 -146 -148
-1 -7 -4 31 -7 83 l-6 95 -32 3 -33 3 0 -490 0 -491 34 0 35 0 3 328 3 327 33
67 c90 184 320 266 496 176 58 -29 134 -111 164 -176 l27 -57 3 -332 3 -333
34 0 35 0 0 323 c0 256 -3 332 -15 371 -47 155 -185 273 -347 296 -82 12 -111
11 -183 -6z"/>
<path d="M440 1438 c-137 -48 -247 -147 -308 -278 -31 -66 -36 -87 -40 -176
-7 -161 31 -264 143 -382 111 -118 239 -170 395 -159 134 10 228 49 318 131
39 36 42 42 42 93 l0 54 -61 -66 c-105 -112 -254 -168 -390 -146 -143 23 -272
118 -336 249 -38 75 -38 77 -38 197 0 116 1 123 34 188 44 90 122 166 217 214
62 30 88 37 154 41 139 8 247 -35 353 -139 l67 -67 0 53 c0 51 -2 55 -47 95
-27 22 -82 57 -123 78 -72 35 -80 37 -195 40 -104 2 -129 -1 -185 -20z"/>
<path d="M5020 1446 c0 -3 56 -91 125 -196 69 -105 125 -193 125 -196 0 -4
-291 -452 -352 -541 l-29 -43 35 0 c36 0 37 1 207 260 94 143 174 260 178 260
3 0 84 -117 179 -260 l172 -260 40 0 39 0 -195 295 -196 295 23 38 c13 20 67
103 121 184 54 81 98 152 98 158 0 5 -13 10 -29 10 -27 0 -38 -14 -137 -165
-73 -112 -111 -162 -118 -155 -5 5 -55 79 -110 162 -98 149 -102 153 -138 156
-21 2 -38 1 -38 -2z"/>
<path d="M6057 1443 c-7 -12 466 -994 475 -985 11 11 468 970 468 982 0 14
-47 12 -57 -2 -4 -7 -96 -197 -203 -421 -108 -225 -200 -408 -205 -407 -6 0
-100 189 -210 418 -197 410 -201 417 -232 420 -17 2 -33 -1 -36 -5z"/>
<path d="M7430 955 l0 -485 35 0 35 0 0 485 0 485 -35 0 -35 0 0 -485z"/>
<path d="M8980 955 l0 -485 35 0 35 0 0 485 0 485 -35 0 -35 0 0 -485z"/>
</g>
</svg>
